HIERARCHY
ROOT hip
{
  OFFSET 0 0 0
  CHANNELS 6 Xposition Yposition Zposition Zrotation Yrotation Xrotation
  JOINT abdomen
  {
    OFFSET 0 20.6881 -0.73152
    CHANNELS 3 Zrotation Xrotation Yrotation
    JOINT chest
    {
      OFFSET 0 11.7043 -0.48768
      CHANNELS 3 Zrotation Xrotation Yrotation
      JOINT neck
      {
        OFFSET 0 22.1894 -2.19456
        CHANNELS 3 Zrotation Xrotation Yrotation
        JOINT head
        {
          OFFSET -0.24384 7.07133 1.2192
          CHANNELS 3 Zrotation Xrotation Yrotation
          JOINT leftEye
          {
            OFFSET 4.14528 8.04674 8.04672
            CHANNELS 3 Zrotation Xrotation Yrotation
            End Site
            {
              OFFSET 1 0 0
            }
          }
          JOINT rightEye
          {
            OFFSET -3.6576 8.04674 8.04672
            CHANNELS 3 Zrotation Xrotation Yrotation
            End Site
            {
              OFFSET 1 0 0
            }
          }
        }
      }
      JOINT rCollar
      {
        OFFSET -2.68224 19.2634 -4.8768
        CHANNELS 3 Zrotation Xrotation Yrotation
        JOINT rShldr
        {
          OFFSET -8.77824 -1.95073 1.46304
          CHANNELS 3 Zrotation Xrotation Yrotation
          JOINT rForeArm
          {
            OFFSET -28.1742 -1.7115 0.48768
            CHANNELS 3 Zrotation Xrotation Yrotation
            JOINT rHand
            {
              OFFSET -22.5879 0.773209 7.07136
              CHANNELS 3 Zrotation Xrotation Yrotation
              JOINT rThumb1
              {
                OFFSET -1.2192 -0.487915 3.41376
                CHANNELS 3 Zrotation Xrotation Yrotation
                JOINT rThumb2
                {
                  OFFSET -3.37035 -0.52449 3.41376
                  CHANNELS 3 Zrotation Xrotation Yrotation
                  End Site
                  {
                    OFFSET -1.78271 -1.18214 1.43049
                  }
                }
              }
              JOINT rIndex1
              {
                OFFSET -7.75947 0.938293 5.60832
                CHANNELS 3 Zrotation Xrotation Yrotation
                JOINT rIndex2
                {
                  OFFSET -2.54057 -0.884171 1.56538
                  CHANNELS 3 Zrotation Xrotation Yrotation
                  End Site
                  {
                    OFFSET -1.62519 -0.234802 1.16502
                  }
                }
              }
              JOINT rMid1
              {
                OFFSET -8.24714 1.18213 3.41376
                CHANNELS 3 Zrotation Xrotation Yrotation
                JOINT rMid2
                {
                  OFFSET -3.10165 -0.590103 1.0647
                  CHANNELS 3 Zrotation Xrotation Yrotation
                  End Site
                  {
                    OFFSET -2.48547 -0.328903 0.83742
                  }
                }
              }
              JOINT rRing1
              {
                OFFSET -8.82822 0.546677 1.51678
                CHANNELS 3 Zrotation Xrotation Yrotation
                JOINT rRing2
                {
                  OFFSET -2.60934 -0.819778 -0.0198488
                  CHANNELS 3 Zrotation Xrotation Yrotation
                  End Site
                  {
                    OFFSET -2.33842 -0.294052 0.168128
                  }
                }
              }
              JOINT rPinky1
              {
                OFFSET -8.27202 -0.0477905 -0.4584
                CHANNELS 3 Zrotation Xrotation Yrotation
                JOINT rPinky2
                {
                  OFFSET -1.82734 -0.647385 -0.700984
                  CHANNELS 3 Zrotation Xrotation Yrotation
                  End Site
                  {
                    OFFSET -1.69225 -0.51767 -0.607171
                  }
                }
              }
            }
          }
        }
      }
      JOINT lCollar
      {
        OFFSET 2.68224 19.2634 -4.8768
        CHANNELS 3 Zrotation Xrotation Yrotation
        JOINT lShldr
        {
          OFFSET 8.77824 -1.95073 1.46304
          CHANNELS 3 Zrotation Xrotation Yrotation
          JOINT lForeArm
          {
            OFFSET 28.1742 -1.7115 0.48768
            CHANNELS 3 Zrotation Xrotation Yrotation
            JOINT lHand
            {
              OFFSET 22.5879 0.773209 7.07136
              CHANNELS 3 Zrotation Xrotation Yrotation
              JOINT lThumb1
              {
                OFFSET 1.2192 -0.487915 3.41376
                CHANNELS 3 Zrotation Xrotation Yrotation
                JOINT lThumb2
                {
                  OFFSET 3.37035 -0.52449 3.41376
                  CHANNELS 3 Zrotation Xrotation Yrotation
                  End Site
                  {
                    OFFSET 1.78271 -1.18214 1.43049
                  }
                }
              }
              JOINT lIndex1
              {
                OFFSET 7.75947 0.938293 5.60832
                CHANNELS 3 Zrotation Xrotation Yrotation
                JOINT lIndex2
                {
                  OFFSET 2.54057 -0.884171 1.56538
                  CHANNELS 3 Zrotation Xrotation Yrotation
                  End Site
                  {
                    OFFSET 1.62519 -0.234802 1.16502
                  }
                }
              }
              JOINT lMid1
              {
                OFFSET 8.24714 1.18213 3.41376
                CHANNELS 3 Zrotation Xrotation Yrotation
                JOINT lMid2
                {
                  OFFSET 3.10165 -0.590103 1.0647
                  CHANNELS 3 Zrotation Xrotation Yrotation
                  End Site
                  {
                    OFFSET 2.48547 -0.328903 0.83742
                  }
                }
              }
              JOINT lRing1
              {
                OFFSET 8.82822 0.546677 1.51678
                CHANNELS 3 Zrotation Xrotation Yrotation
                JOINT lRing2
                {
                  OFFSET 2.60934 -0.819778 -0.0198488
                  CHANNELS 3 Zrotation Xrotation Yrotation
                  End Site
                  {
                    OFFSET 2.33842 -0.294052 0.168128
                  }
                }
              }
              JOINT lPinky1
              {
                OFFSET 8.27202 -0.0477905 -0.4584
                CHANNELS 3 Zrotation Xrotation Yrotation
                JOINT lPinky2
                {
                  OFFSET 1.82734 -0.647385 -0.700984
                  CHANNELS 3 Zrotation Xrotation Yrotation
                  End Site
                  {
                    OFFSET 1.69225 -0.51767 -0.607171
                  }
                }
              }
            }
          }
        }
      }
    }
  }
  JOINT rButtock
  {
    OFFSET -8.77824 4.35084 1.2192
    CHANNELS 3 Zrotation Xrotation Yrotation
    JOINT rThigh
    {
      OFFSET 0 -1.70687 -2.19456
      CHANNELS 3 Zrotation Xrotation Yrotation
      JOINT rShin
      {
        OFFSET 0 -36.8199 0.73152
        CHANNELS 3 Zrotation Xrotation Yrotation
        JOINT rFoot
        {
          OFFSET 0.73152 -45.1104 -5.12064
          CHANNELS 3 Zrotation Xrotation Yrotation
          End Site
          {
            OFFSET -1.1221 -3.69964 12.103
          }
        }
      }
    }
  }
  JOINT lButtock
  {
    OFFSET 8.77824 4.35084 1.2192
    CHANNELS 3 Zrotation Xrotation Yrotation
    JOINT lThigh
    {
      OFFSET 0 -1.70687 -2.19456
      CHANNELS 3 Zrotation Xrotation Yrotation
      JOINT lShin
      {
        OFFSET 0 -36.8199 0.73152
        CHANNELS 3 Zrotation Xrotation Yrotation
        JOINT lFoot
        {
          OFFSET -0.73152 -45.1104 -5.12064
          CHANNELS 3 Zrotation Xrotation Yrotation
          End Site
          {
            OFFSET 1.1221 -3.69964 12.103
          }
        }
      }
    }
  }
}
MOTION
Frames:	4
Frame Time:	0.03333
-0.7004000031811302 51.07809829711914 -3.5859999569365755 -1.2027000077068806 -5.596099868416786 4.906000010669231 -4.477210007607937 20.338500291109085 1.2297100201249123 3.7876100465655327 -13.263799846172333 0.5894850008189678 2.406919989734888 12.207300513982773 9.085280299186707 -2.4258099496364594 -28.1155988574028 17.397699505090714 0.0 0.0 0.0 0.0 0.0 0.0 0.0 0.0 0.0 59.8063999414444 35.30530035495758 7.552460208535194 -28.42899888753891 -36.24120086431503 77.40730226039886 -0.2465039980597794 -15.0996994972229 -2.1611800231039524 8.972023124442785e-10 -5.4727422593714437e-08 8.799361239653081e-10 1.5293366573132516e-09 -9.420688229511143e-08 1.5347723092418164e-09 8.972023124442785e-10 -5.4727422593714437e-08 8.799361239653081e-10 7.7309102565050125 5.474880114197731 0.41731400415301323 8.972023124442785e-10 -5.4727422593714437e-08 8.799361239653081e-10 2.905540131032467 0.9651830233633518 0.102901995414868 8.972023124442785e-10 -5.4727422593714437e-08 8.799361239653081e-10 10.27859978377819 0.7318009994924068 0.025912300043273717 8.972023124442785e-10 -5.4727422593714437e-08 8.799361239653081e-10 2.221670038998127 -0.733487019315362 -0.2089200052432716 0.0 0.0 0.0 -13.823399841785431 -0.2969110035337508 -93.96160125732422 23.27430009841919 -17.85219982266426 -47.54949867725372 0.6339890090748668 -21.88349962234497 3.2396401092410088 4.594724600792688e-10 -2.1870505406695884e-09 -1.0948042472591624e-09 8.15667533515807e-10 -3.798561465373496e-09 -1.892885848064907e-09 4.594724600792688e-10 -2.1870505406695884e-09 -1.0948042472591624e-09 -7.7309102565050125 5.474880114197731 -0.41731400415301323 4.594724600792688e-10 -2.1870505406695884e-09 -1.0948042472591624e-09 -2.905540131032467 0.9651830233633518 -0.102901995414868 4.594724600792688e-10 -2.1870505406695884e-09 -1.0948042472591624e-09 -10.27859978377819 0.7318009994924068 -0.025912300043273717 4.594724600792688e-10 -2.1870505406695884e-09 -1.0948042472591624e-09 -2.221670038998127 -0.733487019315362 0.2089200052432716 0.0 0.0 0.0 -67.49429762363434 -65.15460133552551 -53.16710114479065 -173.0300009250641 80.40820062160492 174.1990041732788 -10.923500061035156 -27.156599164009094 -16.78199976682663 0.0 0.0 0.0 74.65690076351166 -47.65269935131073 66.87699794769287 174.6179974079132 77.24009871482849 -176.01800322532654 7.946470007300377 -21.856099516153336 13.530300110578537
-1.0008300030094688 51.34239959716797 -3.812999955029227 -1.3145000115036964 -4.845600016415119 5.0940000638365746 -4.20882984995842 20.515500605106354 2.42595998570323 3.3517400175333023 -13.48430022597313 0.891333008185029 2.4000999704003334 12.586900144815445 9.605329781770706 -2.9833101108670235 -28.43319922685623 18.304799795150757 0.0 0.0 0.0 0.0 0.0 0.0 0.0 0.0 0.0 53.69710028171539 35.455399453639984 16.47849977016449 -28.429299294948578 -35.31450033187866 75.87710201740265 -0.13769300188869238 -9.341150298714638 -1.3336000218987465 -1.7106316363424412e-10 -5.860272267455002e-08 2.455635694786906e-10 -2.900080176004849e-10 -1.0116195880982559e-07 4.1950443119276315e-10 -1.7106316363424412e-10 -5.860272267455002e-08 2.455635694786906e-10 7.7309102565050125 5.474880114197731 0.41731400415301323 -1.7106316363424412e-10 -5.860272267455002e-08 2.455635694786906e-10 2.905540131032467 0.9651830233633518 0.102901995414868 -1.7106316363424412e-10 -5.860272267455002e-08 2.455635694786906e-10 10.27859978377819 0.7318009994924068 0.025912300043273717 -1.7106316363424412e-10 -5.860272267455002e-08 2.455635694786906e-10 2.221670038998127 -0.733487019315362 -0.2089200052432716 0.0 0.0 0.0 -8.354350179433823 -0.8382280357182026 -96.19919657707214 25.798698663711548 -22.88949966430664 -55.46720266342163 0.9929619915783405 -27.235099375247955 4.140849933028221 -6.330935775622493e-11 6.190248313941993e-10 -5.525180313270539e-10 -1.042366193360067e-10 1.0487610779819079e-09 -9.413270163349807e-10 -6.330935775622493e-11 6.190248313941993e-10 -5.525180313270539e-10 -7.7309102565050125 5.474880114197731 -0.41731400415301323 -6.330935775622493e-11 6.190248313941993e-10 -5.525180313270539e-10 -2.905540131032467 0.9651830233633518 -0.102901995414868 -6.330935775622493e-11 6.190248313941993e-10 -5.525180313270539e-10 -10.27859978377819 0.7318009994924068 -0.025912300043273717 -6.330935775622493e-11 6.190248313941993e-10 -5.525180313270539e-10 -2.221670038998127 -0.733487019315362 0.2089200052432716 0.0 0.0 0.0 -66.61099791526794 -65.0687974691391 -52.674100399017334 -172.84899473190308 80.66340208053589 173.98899793624878 -10.472300201654434 -27.14930087327957 -16.104099601507187 0.0 0.0 0.0 74.67489838600159 -48.46759736537933 66.63760006427765 174.36800479888916 77.89509952068329 -175.7330024242401 7.652729898691177 -21.45310029387474 13.220099955797195
-1.3334300005299156 51.660499572753906 -4.019999957294203 -1.316400021314621 -4.127000011503696 5.347000099718571 -4.054590091109276 20.492299497127533 3.6582501232624054 2.8923798725008965 -13.656599968671799 1.1946699768304825 2.296160012483597 13.21860060095787 10.18309973180294 -3.364959955215454 -28.89850080013275 19.375399500131607 0.0 0.0 0.0 0.0 0.0 0.0 0.0 0.0 0.0 46.98050022125244 35.48379868268967 25.82239866256714 -28.403700292110443 -34.431900680065155 74.4284999370575 -0.08135149895679206 -7.479569837450981 -1.0604199673980474 -1.0772183145490999e-09 -2.6042528133984888e-08 1.9235812942497432e-09 -1.8679457980397274e-09 -4.502510364545742e-08 3.3151081879623234e-09 -1.0772183145490999e-09 -2.6042528133984888e-08 1.9235812942497432e-09 7.7309102565050125 5.474880114197731 0.41731400415301323 -1.0772183145490999e-09 -2.6042528133984888e-08 1.9235812942497432e-09 2.905540131032467 0.9651830233633518 0.102901995414868 -1.0772183145490999e-09 -2.6042528133984888e-08 1.9235812942497432e-09 10.27859978377819 0.7318009994924068 0.025912300043273717 -1.0772183145490999e-09 -2.6042528133984888e-08 1.9235812942497432e-09 2.221670038998127 -0.733487019315362 -0.2089200052432716 0.0 0.0 0.0 -3.611300066113472 -2.630999945104122 -98.66269826889038 27.50179946422577 -28.235700130462646 -64.03180181980133 1.5710400603711605 -33.33729922771454 5.294329896569252 1.3419665378933132e-09 -1.56035184772918e-10 1.2278178473934531e-09 2.2717827619089803e-09 -2.5579538487363607e-10 2.169144863728434e-09 1.3419665378933132e-09 -1.56035184772918e-10 1.2278178473934531e-09 -7.7309102565050125 5.474880114197731 -0.41731400415301323 1.3419665378933132e-09 -1.56035184772918e-10 1.2278178473934531e-09 -2.905540131032467 0.9651830233633518 -0.102901995414868 1.3419665378933132e-09 -1.56035184772918e-10 1.2278178473934531e-09 -10.27859978377819 0.7318009994924068 -0.025912300043273717 1.3419665378933132e-09 -1.56035184772918e-10 1.2278178473934531e-09 -2.221670038998127 -0.733487019315362 0.2089200052432716 0.0 0.0 0.0 -65.82650005817413 -65.06420016288757 -52.22259879112244 -172.64300107955933 80.93220233917236 173.74500274658203 -9.938020259141922 -27.158600091934204 -15.287999957799911 0.0 0.0 0.0 74.56749737262726 -49.27840232849121 66.38939917087555 174.0250039100647 78.69630217552185 -175.3529977798462 7.304239869117737 -21.050900369882584 12.814700156450272
-1.7123499894005363 52.03879928588867 -4.20899995288346 -1.1870000325143337 -3.3656999096274376 5.628000050783157 -4.022179953753948 20.59359982609749 4.891199916601181 2.397829983383417 -13.851600587368011 1.4852199330925941 2.2037699818611145 13.218300193548203 10.714500322937965 -3.6498400568962097 -28.784901201725006 20.371799916028976 0.0 0.0 0.0 0.0 0.0 0.0 0.0 0.0 0.0 39.92460072040558 35.055999755859375 34.99239921569824 -28.348401188850403 -33.365701138973236 72.61389970779419 -0.025700201222207397 -4.893600158393383 -0.6893650162965059 -1.050040054906276e-09 -6.456275514210574e-09 1.9747403712244704e-09 -1.8235013499179331e-09 -1.122430148825515e-08 3.396962711121887e-09 -1.050040054906276e-09 -6.456275514210574e-09 1.9747403712244704e-09 7.7309102565050125 5.474880114197731 0.41731400415301323 -1.050040054906276e-09 -6.456275514210574e-09 1.9747403712244704e-09 2.905540131032467 0.9651830233633518 0.102901995414868 -1.050040054906276e-09 -6.456275514210574e-09 1.9747403712244704e-09 10.27859978377819 0.7318009994924068 0.025912300043273717 -1.050040054906276e-09 -6.456275514210574e-09 1.9747403712244704e-09 2.221670038998127 -0.733487019315362 -0.2089200052432716 0.0 0.0 0.0 0.439916979521513 -5.198470093309879 -101.20100140571594 28.346400260925293 -32.78950095176697 -71.74969732761383 2.0866799913346767 -37.27919965982437 6.148630231618881 1.0580336606835772e-09 -5.013589543523267e-10 1.0948042472591624e-09 1.7902479498843604e-09 -8.390088623855263e-10 1.9235812942497432e-09 1.0580336606835772e-09 -5.013589543523267e-10 1.0948042472591624e-09 -7.7309102565050125 5.474880114197731 -0.41731400415301323 1.0580336606835772e-09 -5.013589543523267e-10 1.0948042472591624e-09 -2.905540131032467 0.9651830233633518 -0.102901995414868 1.0580336606835772e-09 -5.013589543523267e-10 1.0948042472591624e-09 -10.27859978377819 0.7318009994924068 -0.025912300043273717 1.0580336606835772e-09 -5.013589543523267e-10 1.0948042472591624e-09 -2.221670038998127 -0.733487019315362 0.2089200052432716 0.0 0.0 0.0 -64.84749913215637 -65.01759946346283 -51.52490258216858 -172.37899661064148 81.25890076160431 173.44199895858765 -9.414019882678986 -27.146100997924805 -14.483600109815598 0.0 0.0 0.0 74.17279958724976 -50.06690204143524 65.94939887523651 173.54499578475952 79.66050267219543 -174.8319947719574 6.887849718332291 -20.660999715328217 12.278299927711487
